<?xml version="1.0" encoding="UTF-8"?>
<svg width="155px" height="22px" viewBox="0 0 155 22" version="1.1" xmlns="http://www.w3.org/2000/svg" xmlns:xlink="http://www.w3.org/1999/xlink">
    <!-- Generator: Sketch 60.1 (88133) - https://sketch.com -->
    <title>logo</title>
    <desc>Created with Sketch.</desc>
    <defs>
        <linearGradient x1="50%" y1="13.2258635%" x2="50%" y2="126.263969%" id="linearGradient-1">
            <stop stop-color="#00ACFF" offset="0%"></stop>
            <stop stop-color="#2763FF" offset="100%"></stop>
        </linearGradient>
        <linearGradient x1="50%" y1="13.2258635%" x2="50%" y2="126.263969%" id="linearGradient-2">
            <stop stop-color="#00ACFF" offset="0%"></stop>
            <stop stop-color="#2763FF" offset="100%"></stop>
        </linearGradient>
    </defs>
    <g id="页面-1" stroke="none" stroke-width="1" fill="none" fill-rule="evenodd">
        <g id="1-1整体概况_活跃用户" transform="translate(-35.000000, -15.000000)">
            <g id="左侧">
                <g id="logo" transform="translate(30.000000, 8.000000)">
                    <path d="M45.2070222,26.8830084 C46.9360715,26.8830084 48.2171264,26.3955432 49.0359436,25.45961 C50.0594651,24.2896936 50.2308823,23.4122563 50.4253287,19.9415042 C50.5184118,18.1086351 50.5305038,17.5041783 50.4488561,16.9387187 C50.082849,14.4038997 48.1908363,13 45.5873252,13 L40.837408,13 L40,26.8830084 L45.2070222,26.8830084 Z M44.935087,24.0362117 L43.4842755,24.0362117 L43.971218,15.8467967 L45.4419037,15.8467967 C46.2368689,15.8467967 47.0030155,16.1977716 47.1550492,17.2506964 C47.2029117,17.5821727 47.2133431,18.3426184 47.126223,19.9415042 C46.9953769,22.4763231 46.8527783,23.0027855 46.4945458,23.4122563 C46.1533719,23.8022284 45.6704298,24.0362117 44.935087,24.0362117 Z M54.4484929,26.8830084 L55.2262409,24.6991643 L59.4196824,24.6991643 L59.9337529,26.8830084 L63.292481,26.8830084 L59.2011046,13 L56.6373418,13 L50.9307718,26.8830084 L54.4484929,26.8830084 Z M58.7812344,22.0668524 L56.1975975,22.0668524 L57.7527613,17.9721448 L58.7812344,22.0668524 Z M70.5067903,26.8830084 L71.161844,15.8662953 L74.4013272,15.8662953 L74.5836816,13 L64.6664905,13 L64.4841361,15.8662953 L67.8627383,15.8662953 L67.2076847,26.8830084 L70.5067903,26.8830084 Z M77.8800927,26.8830084 L78.6578407,24.6991643 L82.8512823,24.6991643 L83.3653528,26.8830084 L86.7240808,26.8830084 L82.6327045,13 L80.0689416,13 L74.3623716,26.8830084 L77.8800927,26.8830084 Z M82.2128343,22.0668524 L79.6291973,22.0668524 L81.1843612,17.9721448 L82.2128343,22.0668524 Z M91.3746274,26.8830084 L91.7192959,21.2869081 L95.237017,21.2869081 L94.8923485,26.8830084 L98.1914541,26.8830084 L99.0288621,13 L95.7297565,13 L95.4193714,18.4206128 L91.9016503,18.4206128 L92.2120354,13 L88.9129297,13 L88.0755217,26.8830084 L91.3746274,26.8830084 Z M106.138125,27 C108.662139,27 110.95214,25.6545961 111.163812,22.0278552 L111.708557,13 L108.409452,13 L107.884912,21.7548747 C107.795143,23.1977716 107.274437,24.1337047 105.922997,24.1337047 C104.92929,24.1337047 104.416208,23.4707521 104.303591,22.6908078 C104.26699,22.4373259 104.264507,22.1448468 104.27047,21.9108635 L104.812234,13 L101.513128,13 L100.985773,21.735376 C100.965567,22.0083565 100.990408,22.5933148 101.041086,22.9442897 C101.381754,25.3036212 103.435243,27 106.138125,27 Z M116.674395,26.8830084 L117.123243,19.6685237 L121.165949,26.8830084 L123.908579,26.8830084 L124.745987,13 L121.446881,13 L121.020724,20.2339833 L116.955328,13 L114.212698,13 L113.37529,26.8830084 L116.674395,26.8830084 Z M132.494203,26.8830084 L133.149257,15.8662953 L136.38874,15.8662953 L136.571095,13 L126.653904,13 L126.471549,15.8662953 L129.850151,15.8662953 L129.195098,26.8830084 L132.494203,26.8830084 Z M146.96257,26.8830084 L147.127866,24.0362117 L141.185501,24.0362117 L141.347815,21.3064067 L146.37597,21.3064067 L146.541266,18.45961 L141.513111,18.45961 L141.672444,15.8467967 L147.495564,15.8467967 L147.660859,13 L138.538634,13 L137.701226,26.8830084 L146.96257,26.8830084 Z M152.547201,26.8830084 L152.88011,21.6183844 L154.13218,21.6183844 L156.382908,26.8830084 L160,26.8830084 L157.292665,21.2089136 C159.275443,20.3509749 159.970381,18.5571031 159.747961,17.0167131 C159.438263,14.8718663 158.074904,13 155.113658,13 L150.085503,13 L149.248095,26.8830084 L152.547201,26.8830084 Z M154.75723,18.9275766 L153.028181,18.9275766 L153.224944,15.8857939 L154.973868,15.8857939 C155.788707,15.8857939 156.330441,16.3342618 156.454321,17.1922006 C156.535968,17.7576602 156.327286,18.9275766 154.75723,18.9275766 Z" id="DATAHUNTER" fill="#323232" fill-rule="nonzero"></path>
                    <g id="logo_2">
                        <path d="M18.3264293,7 L21.5,7 L21.5,7 L19.6653571,27.1810715 C19.5717064,28.2112298 18.7079771,29 17.6735707,29 L14.5,29 L14.5,29 L16.3346429,8.81892851 C16.4282936,7.78877019 17.2920229,7 18.3264293,7 Z" id="矩形" fill="url(#linearGradient-1)"></path>
                        <path d="M27.3264293,7 L30.5,7 L30.5,7 L28.6653571,27.1810715 C28.5717064,28.2112298 27.7079771,29 26.6735707,29 L23.5,29 L23.5,29 L25.3346429,8.81892851 C25.4282936,7.78877019 26.2920229,7 27.3264293,7 Z" id="矩形备份" fill="url(#linearGradient-1)"></path>
                        <path d="M22.5,14.5 C24.4329966,14.5 26,16.0670034 26,18 L26,21.5 L26,21.5 L22.5,21.5 C20.5670034,21.5 19,19.9329966 19,18 C19,16.0670034 20.5670034,14.5 22.5,14.5 Z" id="矩形" fill="#00E7F6"></path>
                        <path d="M8.32642928,18 L11.5,18 L11.5,18 L10.6653571,27.1810715 C10.5717064,28.2112298 9.70797713,29 8.67357072,29 L5.5,29 L5.5,29 L6.33464286,19.8189285 C6.42829362,18.7887702 7.29202287,18 8.32642928,18 Z" id="矩形" fill="url(#linearGradient-2)" transform="translate(8.500000, 23.500000) rotate(-360.000000) translate(-8.500000, -23.500000) "></path>
                    </g>
                </g>
            </g>
        </g>
    </g>
</svg>