<?xml version="1.0" encoding="UTF-8"?>
<svg width="16px" fill="currentColor" height="15px" viewBox="0 0 16 15" version="1.1" xmlns="http://www.w3.org/2000/svg" xmlns:xlink="http://www.w3.org/1999/xlink">
    <!-- Generator: Sketch 60.1 (88133) - https://sketch.com -->
    <title>定制报告_normal</title>
    <desc>Created with Sketch.</desc>
    <g id="页面-1" stroke="none" stroke-width="1" fill-rule="evenodd">
        <g id="icon" transform="translate(-37.000000, -89.000000)">
            <g id="定制报告_normal" transform="translate(35.000000, 87.000000)">
                <rect id="矩形" opacity="0" transform="translate(10.000000, 10.000000) rotate(-90.000000) translate(-10.000000, -10.000000) " x="0" y="0" width="20" height="20"></rect>
                <path d="M16.5750578,5.46508851 C16.8442191,5.73424987 16.8565316,6.16617464 16.6179325,6.46993254 L16.5530589,6.54303351 L13.3776687,9.71777651 L16.7282027,13.0685721 C17.006632,13.3470015 17.0381105,13.7757324 16.8168238,14.0698537 L16.7502015,14.1465171 L14.0349115,16.8618072 C13.7698283,17.1268903 13.3468766,17.1428489 13.0439619,16.9153545 L12.9569665,16.8398083 L9.60666825,13.488777 L7.04640105,16.0496914 C6.76602463,16.3300678 6.33323717,16.3600274 6.03896892,16.133633 L5.96845604,16.0716902 L3.253166,13.3564002 C2.98400464,13.0872388 2.97169217,12.6553141 3.21029123,12.3515562 L3.27516488,12.2784552 L5.83566779,9.71777651 L3.86858918,7.75143097 C3.75753383,7.64037561 3.68201878,7.50035298 3.65060018,7.35027371 L3.63543801,7.23612412 L3.45662042,4.12093351 C3.44026557,3.83601477 3.64461563,3.60153735 3.91643337,3.57073848 L4.00932789,3.56822604 L7.1245185,3.74704363 C7.27844417,3.75587924 7.42704087,3.81095034 7.55139795,3.90370078 L7.63982535,3.9801948 L9.60666825,5.94677605 L12.7818227,2.77179735 C13.0621991,2.49142093 13.4949866,2.46146127 13.7892548,2.68785571 L13.8597677,2.74979847 L16.5750578,5.46508851 Z M8.85218531,12.734294 L6.58944361,10.4715523 L4.26511437,12.7970002 L6.52785607,15.0597419 L8.85218531,12.734294 Z M13.6329343,11.4805937 L6.97798581,4.82684973 L4.57775113,4.68935675 L4.71589884,7.09024616 L11.3701926,13.7433354 L13.6329343,11.4805937 Z M15.7382532,13.5871171 L14.4185299,12.2661894 L12.1557882,14.5289311 L13.4755115,15.8498588 L15.7382532,13.5871171 Z M15.5631094,6.02448854 L13.3003677,3.76174684 L12.3573136,4.70368233 L13.4889904,5.8358658 L12.7033162,6.62154 L11.571718,5.48927796 L10.3604441,6.70055188 L12.6231858,8.96329358 L15.5631094,6.02448854 Z" id="形状" fill-rule="nonzero" transform="translate(10.001684, 9.805803) rotate(-90.000000) translate(-10.001684, -9.805803) "></path>
            </g>
        </g>
    </g>
</svg>