<?xml version="1.0" encoding="UTF-8"?>
<svg width="12px" fill="currentColor" height="14px" viewBox="0 0 12 14" version="1.1" xmlns="http://www.w3.org/2000/svg" xmlns:xlink="http://www.w3.org/1999/xlink">
    <!-- Generator: Sketch 60.1 (88133) - https://sketch.com -->
    <title>用户分析_normal</title>
    <desc>Created with Sketch.</desc>
    <g id="页面-1" stroke="none" stroke-width="1" fill-rule="evenodd">
        <g id="icon" transform="translate(-39.000000, -38.000000)">
            <g id="用户分析_normal" transform="translate(35.000000, 35.000000)">
                <rect id="矩形" opacity="0" x="0" y="0" width="20" height="20"></rect>
                <g id="编组-15" transform="translate(4.000000, 2.000000)"></g>
                <path d="M14,15 C14.3313708,15 14.6,15.2686292 14.6,15.6 C14.6,15.8982338 14.3824104,16.1456468 14.0973231,16.192147 L14,16.2 L6,16.2 C5.66862915,16.2 5.4,15.9313708 5.4,15.6 C5.4,15.3017662 5.61758961,15.0543532 5.90267688,15.007853 L6,15 L14,15 Z M10,3 C13.0927946,3 15.6,5.5072054 15.6,8.6 C15.6,11.6927946 13.0927946,14.2 10,14.2 C6.9072054,14.2 4.4,11.6927946 4.4,8.6 C4.4,5.5072054 6.9072054,3 10,3 Z M10,4.2 C7.5699471,4.2 5.6,6.1699471 5.6,8.6 C5.6,11.0300529 7.5699471,13 10,13 C12.4300529,13 14.4,11.0300529 14.4,8.6 C14.4,6.1699471 12.4300529,4.2 10,4.2 Z M8.42426407,9.67573593 C8.98700059,10.2384725 9.51005568,10.5 10,10.5 C10.4899443,10.5 11.0129994,10.2384725 11.5757359,9.67573593 C11.8100505,9.44142136 12.1899495,9.44142136 12.4242641,9.67573593 C12.6585786,9.91005051 12.6585786,10.2899495 12.4242641,10.5242641 C11.6536673,11.2948609 10.843389,11.7 10,11.7 C9.15661099,11.7 8.34633274,11.2948609 7.57573593,10.5242641 C7.34142136,10.2899495 7.34142136,9.91005051 7.57573593,9.67573593 C7.81005051,9.44142136 8.18994949,9.44142136 8.42426407,9.67573593 Z" id="形状结合" fill-rule="nonzero"></path>
            </g>
        </g>
    </g>
</svg>