<?xml version="1.0" encoding="UTF-8"?>
<svg width="14px" fill="currentColor" height="14px" viewBox="0 0 14 14" version="1.1" xmlns="http://www.w3.org/2000/svg" xmlns:xlink="http://www.w3.org/1999/xlink">
    <!-- Generator: Sketch 60.1 (88133) - https://sketch.com -->
    <title>功能分析_normal</title>
    <desc>Created with Sketch.</desc>
    <g id="页面-1" stroke="none" stroke-width="1" fill-rule="evenodd">
        <g id="icon" transform="translate(-38.000000, -64.000000)">
            <g id="功能分析_normal" transform="translate(35.000000, 61.000000)">
                <rect id="矩形" opacity="0" x="0" y="0" width="20" height="20"></rect>
                <path d="M8.5,10.4 C9.10751322,10.4 9.6,10.8924868 9.6,11.5 L9.6,11.5 L9.6,15.5 C9.6,16.1075132 9.10751322,16.6 8.5,16.6 L8.5,16.6 L4.5,16.6 C3.89248678,16.6 3.4,16.1075132 3.4,15.5 L3.4,15.5 L3.4,11.5 C3.4,10.8924868 3.89248678,10.4 4.5,10.4 L4.5,10.4 Z M15.5,10.4 C16.1075132,10.4 16.6,10.8924868 16.6,11.5 L16.6,11.5 L16.6,15.5 C16.6,16.1075132 16.1075132,16.6 15.5,16.6 L15.5,16.6 L11.5,16.6 C10.8924868,16.6 10.4,16.1075132 10.4,15.5 L10.4,15.5 L10.4,11.5 C10.4,10.8924868 10.8924868,10.4 11.5,10.4 L11.5,10.4 Z M8.4,11.6 L4.6,11.6 L4.6,15.4 L8.4,15.4 L8.4,11.6 Z M15.4,11.6 L11.6,11.6 L11.6,15.4 L15.4,15.4 L15.4,11.6 Z M8.5,3.4 C9.10751322,3.4 9.6,3.89248678 9.6,4.5 L9.6,4.5 L9.6,8.5 C9.6,9.10751322 9.10751322,9.6 8.5,9.6 L8.5,9.6 L4.5,9.6 C3.89248678,9.6 3.4,9.10751322 3.4,8.5 L3.4,8.5 L3.4,4.5 C3.4,3.89248678 3.89248678,3.4 4.5,3.4 L4.5,3.4 Z M11.3411666,3.50630939 L11.4242641,3.57573593 L16.4242641,8.57573593 C16.6585786,8.81005051 16.6585786,9.18994949 16.4242641,9.42426407 C16.2159844,9.63254369 15.8926752,9.65568587 15.6588334,9.49369061 L15.5757359,9.42426407 L10.5757359,4.42426407 C10.3414214,4.18994949 10.3414214,3.81005051 10.5757359,3.57573593 C10.7840156,3.36745631 11.1073248,3.34431413 11.3411666,3.50630939 Z M8.4,4.6 L4.6,4.6 L4.6,8.4 L8.4,8.4 L8.4,4.6 Z" id="形状结合" fill-rule="nonzero"></path>
            </g>
        </g>
    </g>
</svg>