<?xml version="1.0" encoding="UTF-8"?>
<svg width="16px" height="14px" fill="currentColor" viewBox="0 0 16 14" version="1.1" xmlns="http://www.w3.org/2000/svg" xmlns:xlink="http://www.w3.org/1999/xlink">
    <!-- Generator: Sketch 60.1 (88133) - https://sketch.com -->
    <title>整体概况_normal</title>
    <desc>Created with Sketch.</desc>
    <g id="页面-1" stroke="none" stroke-width="1" fill-rule="evenodd">
        <g id="icon" transform="translate(-37.000000, -12.000000)">
            <g id="整体概况_normal" transform="translate(35.000000, 9.000000)">
                <rect id="矩形" fill="#D8D8D8" opacity="0" x="0" y="0" width="20" height="20"></rect>
                <path d="M17,15.4 C17.3313708,15.4 17.6,15.6686292 17.6,16 C17.6,16.2982338 17.3824104,16.5456468 17.0973231,16.592147 L17,16.6 L3,16.6 C2.66862915,16.6 2.4,16.3313708 2.4,16 C2.4,15.7017662 2.61758961,15.4543532 2.90267688,15.407853 L3,15.4 L17,15.4 Z M11.05,5.4 C11.4918278,5.4 11.85,5.7581722 11.85,6.2 L11.85,6.2 L11.85,13.8 C11.85,14.2418278 11.4918278,14.6 11.05,14.6 L11.05,14.6 L8.95,14.6 C8.5081722,14.6 8.15,14.2418278 8.15,13.8 L8.15,13.8 L8.15,6.2 C8.15,5.7581722 8.5081722,5.4 8.95,5.4 L8.95,5.4 Z M6.55,8.4 C6.9918278,8.4 7.35,8.7581722 7.35,9.2 L7.35,9.2 L7.35,13.8 C7.35,14.2418278 6.9918278,14.6 6.55,14.6 L6.55,14.6 L4.45,14.6 C4.0081722,14.6 3.65,14.2418278 3.65,13.8 L3.65,13.8 L3.65,9.2 C3.65,8.7581722 4.0081722,8.4 4.45,8.4 L4.45,8.4 Z M15.55,3.4 C15.9918278,3.4 16.35,3.7581722 16.35,4.2 L16.35,4.2 L16.35,13.8 C16.35,14.2418278 15.9918278,14.6 15.55,14.6 L15.55,14.6 L13.45,14.6 C13.0081722,14.6 12.65,14.2418278 12.65,13.8 L12.65,13.8 L12.65,4.2 C12.65,3.7581722 13.0081722,3.4 13.45,3.4 L13.45,3.4 Z M10.65,6.6 L9.35,6.6 L9.35,13.4 L10.65,13.4 L10.65,6.6 Z M6.15,9.6 L4.85,9.6 L4.85,13.4 L6.15,13.4 L6.15,9.6 Z M15.15,4.6 L13.85,4.6 L13.85,13.4 L15.15,13.4 L15.15,4.6 Z" id="形状结合"></path>
            </g>
        </g>
    </g>
</svg>