<?xml version="1.0" encoding="UTF-8"?>
<svg width="243px" height="36px" viewBox="0 0 243 36" version="1.1" xmlns="http://www.w3.org/2000/svg" xmlns:xlink="http://www.w3.org/1999/xlink">
    <!-- Generator: Sketch 60.1 (88133) - https://sketch.com -->
    <title>登陆页</title>
    <desc>Created with Sketch.</desc>
    <defs>
        <linearGradient x1="50%" y1="13.2258635%" x2="50%" y2="126.263969%" id="linearGradient-1">
            <stop stop-color="#00ACFF" offset="0%"></stop>
            <stop stop-color="#2763FF" offset="100%"></stop>
        </linearGradient>
        <linearGradient x1="50%" y1="13.2258635%" x2="50%" y2="126.263969%" id="linearGradient-2">
            <stop stop-color="#00ACFF" offset="0%"></stop>
            <stop stop-color="#2763FF" offset="100%"></stop>
        </linearGradient>
    </defs>
    <g id="页面-1" stroke="none" stroke-width="1" fill="none" fill-rule="evenodd">
        <g id="0-1登陆页" transform="translate(-824.000000, -220.000000)">
            <g id="登陆页" transform="translate(824.000000, 220.000000)">
                <g id="logo备份-2">
                    <path d="M21.0488154,0 L26.19,0 L26.19,0 L23.2178786,32.6933358 C23.0661643,34.3621923 21.666923,35.64 19.9911846,35.64 L14.85,35.64 L14.85,35.64 L17.8221214,2.94666418 C17.9738357,1.27780771 19.373077,-1.02443948e-15 21.0488154,0 Z" id="矩形" fill="url(#linearGradient-1)"></path>
                    <path d="M35.6288154,0 L40.77,0 L40.77,0 L37.7978786,32.6933358 C37.6461643,34.3621923 36.246923,35.64 34.5711846,35.64 L29.43,35.64 L29.43,35.64 L32.4021214,2.94666418 C32.5538357,1.27780771 33.953077,-1.02443948e-15 35.6288154,0 Z" id="矩形备份" fill="url(#linearGradient-1)"></path>
                    <path d="M27.81,12.15 C30.9414545,12.15 33.48,14.6885455 33.48,17.82 L33.48,23.49 L33.48,23.49 L27.81,23.49 C24.6785455,23.49 22.14,20.9514545 22.14,17.82 C22.14,14.6885455 24.6785455,12.15 27.81,12.15 Z" id="矩形" fill="#00E7F6"></path>
                    <path d="M4.84881543,17.82 L9.99,17.82 L9.99,17.82 L8.63787856,32.6933358 C8.48616434,34.3621923 7.08692296,35.64 5.41118457,35.64 L0.27,35.64 L0.27,35.64 L1.62212144,20.7666642 C1.77383566,19.0978077 3.17307704,17.82 4.84881543,17.82 Z" id="矩形" fill="url(#linearGradient-2)" transform="translate(5.130000, 26.730000) rotate(-360.000000) translate(-5.130000, -26.730000) "></path>
                </g>
                <path d="M61.2444518,31.816156 C63.9821133,31.816156 66.0104502,31.0501393 67.3069107,29.5793872 C68.9274864,27.7409471 69.198897,26.362117 69.5067705,20.908078 C69.654152,18.0278552 69.6732977,17.0779944 69.5440221,16.189415 C68.9645109,12.2061281 65.9688241,10 61.8465982,10 L54.325896,10 L53,31.816156 L61.2444518,31.816156 Z M60.8138877,27.3426184 L58.5167695,27.3426184 L59.2877618,14.4735376 L61.6163474,14.4735376 C62.8750424,14.4735376 64.0881078,15.0250696 64.3288279,16.6796657 C64.4046101,17.2005571 64.4211266,18.3955432 64.2831865,20.908078 C64.0760134,24.8913649 63.8502323,25.718663 63.2830308,26.362117 C62.7428389,26.9749304 61.9781806,27.3426184 60.8138877,27.3426184 Z M75.8767804,31.816156 L77.1082147,28.3844011 L83.7478305,28.3844011 L84.5617754,31.816156 L89.8797615,31.816156 L83.4017489,10 L79.3424578,10 L70.3070553,31.816156 L75.8767804,31.816156 Z M82.7369545,24.2479109 L78.646196,24.2479109 L81.1085388,17.8133705 L82.7369545,24.2479109 Z M101.302418,31.816156 L102.339586,14.5041783 L107.468768,14.5041783 L107.757496,10 L92.0552766,10 L91.7665488,14.5041783 L97.1160023,14.5041783 L96.0788341,31.816156 L101.302418,31.816156 Z M112.976814,31.816156 L114.208248,28.3844011 L120.847864,28.3844011 L121.661809,31.816156 L126.979795,31.816156 L120.501782,10 L116.442491,10 L107.407088,31.816156 L112.976814,31.816156 Z M119.836988,24.2479109 L115.746229,24.2479109 L118.208572,17.8133705 L119.836988,24.2479109 Z M134.34316,31.816156 L134.888885,23.0222841 L140.45861,23.0222841 L139.912885,31.816156 L145.136469,31.816156 L146.462365,10 L141.238781,10 L140.747338,18.5181058 L135.177613,18.5181058 L135.669056,10 L130.445472,10 L129.119576,31.816156 L134.34316,31.816156 Z M157.718698,32 C161.715054,32 165.340889,29.8857939 165.676035,24.1866295 L166.538549,10 L161.314965,10 L160.484444,23.7576602 C160.342309,26.0250696 159.517859,27.4958217 157.378078,27.4958217 C155.804709,27.4958217 154.99233,26.454039 154.814019,25.2284123 C154.756068,24.8300836 154.752136,24.3704735 154.761577,24.0027855 L155.619371,10 L150.395787,10 L149.560808,23.7270195 C149.528815,24.1559889 149.568146,25.0752089 149.648386,25.6267409 C150.187777,29.3342618 153.439135,32 157.718698,32 Z M174.401126,31.816156 L175.111801,20.4791086 L181.512753,31.816156 L185.85525,31.816156 L187.181146,10 L181.957562,10 L181.282812,21.367688 L174.845936,10 L170.503438,10 L169.177542,31.816156 L174.401126,31.816156 Z M199.449155,31.816156 L200.486324,14.5041783 L205.615505,14.5041783 L205.904233,10 L190.202014,10 L189.913286,14.5041783 L195.26274,14.5041783 L194.225571,31.816156 L199.449155,31.816156 Z M222.357403,31.816156 L222.619121,27.3426184 L213.210377,27.3426184 L213.467374,23.0529248 L221.42862,23.0529248 L221.690338,18.5793872 L213.729092,18.5793872 L213.981369,14.4735376 L223.201309,14.4735376 L223.463028,10 L209.019503,10 L207.693607,31.816156 L222.357403,31.816156 Z M231.199735,31.816156 L231.72684,23.5431755 L233.709285,23.5431755 L237.272938,31.816156 L243,31.816156 L238.713386,22.8997214 C241.852785,21.551532 242.953104,18.7325905 242.600939,16.3119777 C242.110583,12.9415042 239.951931,10 235.263292,10 L227.302047,10 L225.976151,31.816156 L231.199735,31.816156 Z M234.698947,19.3147632 L231.961286,19.3147632 L232.272828,14.5348189 L235.041957,14.5348189 C236.33212,14.5348189 237.189865,15.2395543 237.386008,16.5877437 C237.515283,17.4763231 237.18487,19.3147632 234.698947,19.3147632 Z" id="DATAHUNTER" fill="#323232" fill-rule="nonzero"></path>
            </g>
        </g>
    </g>
</svg>